<?xml version="1.0" standalone="no"?><!DOCTYPE svg PUBLIC "-//W3C//DTD SVG 1.1//EN" "http://www.w3.org/Graphics/SVG/1.1/DTD/svg11.dtd"><svg t="1692166535730" class="icon" viewBox="0 0 1096 1024" version="1.1" xmlns="http://www.w3.org/2000/svg" p-id="1013" xmlns:xlink="http://www.w3.org/1999/xlink" width="137" height="128"><path d="M962.082721 150.493387h44.556792c49.60907 0 89.812303 39.235776 89.812303 86.90993v699.525509c0 48.050388-40.203233 86.909931-89.812303 86.909931H245.680453c-49.60907 0-89.812303-39.235776-89.812303-86.909931v-47.459164H89.812303C40.203233 889.52341 0 850.287634 0 802.613479V86.909931C0 38.91329 40.203233 0 89.812303 0h782.458115C921.879488 0 962.082721 39.235776 962.082721 86.909931V150.493387z m-67.184548 0v-49.662818c0-18.596683-14.7806-33.646021-33.484778-33.646021l-760.529078 0.376233c-18.489187 0-33.484779 14.7806-33.484779 33.699769l-0.21499 687.432291c0 18.542935 14.726853 33.646021 33.43103 33.646021l55.252572-0.053748V237.403317C155.86815 189.406676 196.071384 150.493387 245.680453 150.493387H894.898173z m-671.845475 772.568549c0 18.542935 14.726853 33.646021 33.431031 33.646021l739.030023-0.376233a33.431031 33.431031 0 0 0 33.484778-33.699769l0.214991-671.308c0-18.596683-14.7806-33.646021-33.484779-33.646021l-739.030023 0.376234c-18.489187 0-33.484779 14.7806-33.484778 33.699769 0.053748 0-0.161243 671.307999-0.161243 671.307999zM717.100987 553.600672c63.475961 0 127.113164 50.845266 224.557632 170.326265 16.60802 20.316607 33.968507 42.568129 52.081461 66.539576 32.624816 43.266849 66.862062 91.317237 101.744279 142.592483 2.74113 4.08482-25.422633 25.906362-54.876339 48.534118-29.453706 22.627756-55.145077 42.406886-55.145076 42.406886l-746.124712-0.859962 40.364476-55.037582s-14.7806 13.490657-9.190846 6.127231c11.931976-15.640563 24.025194-31.227378 36.225908-46.706697 40.095738-51.114004 79.277766-98.895654 116.309889-142.00126 16.876758-19.617888 33.162293-37.99958 48.749108-55.198824C585.150535 605.682133 654.108755 553.600672 717.100987 553.600672z m327.108125 414.501784c-34.237245-50.469032-63.637203-91.639723-95.617048-133.992861-17.629225-23.380223-34.452236-44.933025-50.576528-64.604661-86.587445-106.205333-139.797607-148.719714-180.968297-148.719715-41.708167 0-101.690531 45.255511-204.026034 157.803066-16.124291 17.790468-31.979845 35.742179-47.620407 53.908881-36.387151 42.299391-74.924207 89.328574-114.482469 139.690111-12.415704 15.801806 14.673105-16.231787 14.673105-16.231787l628.041151 26.282595c7.632165-10.857023 55.360067-7.148436 50.576527-14.135629zM391.014067 452.823851c-37.08587 0-67.184548-30.098677-67.184548-67.184548s30.098677-67.184548 67.184548-67.184548 67.184548 30.098677 67.184547 67.184548-30.098677 67.184548-67.184547 67.184548z" p-id="1014"></path></svg>