<?xml version="1.0" standalone="no"?><!DOCTYPE svg PUBLIC "-//W3C//DTD SVG 1.1//EN" "http://www.w3.org/Graphics/SVG/1.1/DTD/svg11.dtd"><svg t="1693446946244" class="icon" viewBox="0 0 1024 1024" version="1.1" xmlns="http://www.w3.org/2000/svg" p-id="4089" xmlns:xlink="http://www.w3.org/1999/xlink" width="128" height="128"><path d="M915.47865 515.51225H107.51785c-13.47557 0-26.090998 5.734285-35.695926 14.47907-9.461571 9.461571-14.622428 22.363713-14.479071 35.695926v378.892902c-0.143357 27.52457 21.933641 50.031639 49.601568 50.318354h809.681086c13.47557 0 26.090998-5.734285 35.695927-14.47907 9.461571-9.461571 14.765785-22.363713 14.47907-35.695926V565.687246c0-13.47557-5.734285-26.090998-14.47907-35.695926-9.748285-8.744785-23.223856-14.622428-36.842784-14.47907zM334.738905 818.9993H182.923702V667.184096h151.671846v151.815204z m505.477251-75.405852H436.092398v-76.409352H840.072799v76.409352z m-125.724206-335.455691c-119.846563-89.884922-286.140837-89.884922-405.9874 0-20.356713 15.48257-49.314854 13.47557-66.661067-4.874142-21.216856-22.220356-18.349713-57.916282 5.734285-76.409352 155.542489-116.97942 371.151617-116.97942 527.697606 0 24.227355 18.349713 28.097998 54.188996 5.734286 76.409352-17.202856 19.49657-46.160997 20.356713-66.51771 4.874142z" p-id="4090"></path><path d="M813.121658 236.109198c-175.899202-141.063419-427.204256-141.063419-603.103458 0-20.356713 16.48607-50.318354 14.47907-67.664567-3.870643-18.779784-20.356713-17.48957-52.038639 2.867143-70.675066 0.573429-0.573429 1.290214-1.146857 2.006999-1.720286C359.826403-13.188856 665.177096-14.192356 878.779224 156.97606c24.227355 19.353213 25.087498 55.049139 3.870643 76.409352-19.209856 18.062999-48.884782 19.353213-69.528209 2.723786z" p-id="4091"></path></svg>