<?xml version="1.0" standalone="no"?><!DOCTYPE svg PUBLIC "-//W3C//DTD SVG 1.1//EN" "http://www.w3.org/Graphics/SVG/1.1/DTD/svg11.dtd"><svg t="1694412464824" class="icon" viewBox="0 0 1024 1024" version="1.1" xmlns="http://www.w3.org/2000/svg" p-id="8811" xmlns:xlink="http://www.w3.org/1999/xlink" width="128" height="128"><path d="M877.5 289L653.9 88c-15.3-13.9-35.2-21.6-55.8-21.6H205.7c-45.8 0-82.9 37.1-82.9 82.9v727.9c0 45.8 37.1 82.9 82.9 82.9h616c45.8 0 82.9-37.1 82.9-82.9V350.3c0-23.3-9.8-45.6-27.1-61.3zM681 661.9c0 12.6-10.2 22.8-22.8 22.8h-289c-12.6 0-22.8-10.2-22.8-22.8v-63c0-12.6 10.2-22.8 22.8-22.8h289c12.6 0 22.8 10.2 22.8 22.8v63z m0-173.1c0 12.6-10.2 22.8-22.8 22.8h-289c-12.6 0-22.8-10.2-22.8-22.8v-63c0-12.6 10.2-22.8 22.8-22.8h289c12.6 0 22.8 10.2 22.8 22.8v63z" p-id="8812"></path></svg>